# xmcd
#
# Track frame offsets:
#	150
#	14131
#	27959
#	42683
#	56205
#	69355
#	80756
#	95103
#	106537
#	118832
#	134204
#	147627
#	161900
#	175021
#	186222
#	198587
#	211455
#	223966
#	238841
#	253370
#	265604
#
# Disc length: 3742 seconds
#
# Revision: 4
# Processed by: cddbd v1.5.2PL0 Copyright (c) Steve Scherf et al.
# Submitted via: audiograbber 1.83.01
#
DISCID=5d0e9c15
DTITLE=Gene Krupa - Bolero at the Savoy [CD 1)
DYEAR=2000
DGENRE=Big Band
TTITLE0=You're Breaking My Heart All Over Again  1940
TTITLE1=Down Argentina Way  1940
TTITLE2=Moon Over Burma  1940
TTITLE3=High on a Windy Hill  1940
TTITLE4=I Hear Music  1940
TTITLE5=Like the Fella Once Said  1940
TTITLE6=Somewhere  1940
TTITLE7=I'd Know You Anywhere  1940
TTITLE8=How 'Bout That Mess?  1940
TTITLE9=You Danced With Dynamite  1940
TTITLE10=When You Awake  1940
TTITLE11=It All Comes Back to Me Now  1940
TTITLE12=Hamtramck  1940
TTITLE13=Yes, My Darling Daughter  1940
TTITLE14=Full Dress Hop  1940
TTITLE15=Sweet Georgia Brown  1940
TTITLE16=Oh! They're Making Me All Over in the Army  1940
TTITLE17=Deep in the Blues  1940
TTITLE18=You Are the One  1940
TTITLE19=Isn't That Just Like Love?  1940
TTITLE20=You Forgot About Me  1940
EXTD=
EXTT0=
EXTT1=
EXTT2=
EXTT3=
EXTT4=
EXTT5=
EXTT6=
EXTT7=
EXTT8=
EXTT9=
EXTT10=
EXTT11=
EXTT12=
EXTT13=
EXTT14=
EXTT15=
EXTT16=
EXTT17=
EXTT18=
EXTT19=
EXTT20=
PLAYORDER=
